<mxfile host="app.diagrams.net" modified="2024-03-19T12:00:00.000Z" agent="Mozilla/5.0" version="15.8.3" type="device">
<diagram id="statistical-control-chart" name="Statistical Control Chart">
<mxGraphModel dx="1200" dy="800" grid="1" gridSize="10" guides="1" tooltips="1" connect="1" arrows="1" fold="1" page="1" pageScale="1" pageWidth="850" pageHeight="1100" math="0" shadow="0">
<root>
<mxCell id="0"/>
<mxCell id="1" parent="0"/>

<mxCell id="chart-border" value="" style="rounded=0;whiteSpace=wrap;html=1;fillColor=none;strokeColor=#666666;" vertex="1" parent="1">
    <mxGeometry x="50" y="50" width="700" height="400" as="geometry"/>
</mxCell>

<mxCell id="data-points" value="" style="html=1;strokeColor=#0066CC;strokeWidth=2;points=[[50,250],[150,180],[250,300],[350,220],[450,270],[550,150],[650,280],[750,230]];movable=0;resizable=0;rotatable=0;deletable=0;editable=0;locked=1;connectable=0;" edge="1" parent="1">
    <mxGeometry relative="1" as="geometry"/>
</mxCell>

<mxCell id="control-lines" value="" style="html=1;" vertex="1" parent="1">
    <mxGeometry relative="1" as="geometry">
        <Array as="lines">
            <Object strokeColor="#FF0000" strokeWidth="2" dashed="1">
                <mxPoint x="50" y="100"/>
                <mxPoint x="750" y="100"/>
            </Object>
            <Object strokeColor="#009900" strokeWidth="2">
                <mxPoint x="50" y="250"/>
                <mxPoint x="750" y="250"/>
            </Object>
            <Object strokeColor="#FF0000" strokeWidth="2" dashed="1">
                <mxPoint x="50" y="400"/>
                <mxPoint x="750" y="400"/>
            </Object>
        </Array>
    </mxGeometry>
</mxCell>

<mxCell id="labels" value="" style="group" vertex="1" connectable="0" parent="1">
    <mxGeometry x="760" y="90" width="80" height="320" as="geometry">
        <mxCell id="ucl-label" value="UCL (+3σ)" style="text;fontColor=#FF0000"/>
        <mxCell id="mean-label" value="Mean" style="text;fontColor=#009900" offsetY="150"/>
        <mxCell id="lcl-label" value="LCL (-3σ)" style="text;fontColor=#FF0000" offsetY="300"/>
    </mxGeometry>
</mxCell>

<mxCell id="title" value="Statistical Process Control Chart" style="text;fontSize=16;fontStyle=1" vertex="1" parent="1">
    <mxGeometry x="250" y="10" width="300" height="30" as="geometry"/>
</mxCell>

</root>
</mxGraphModel>
</diagram>
</mxfile>
